<svg width="50" height="50" viewBox="0 0 50 50" fill="none" xmlns="http://www.w3.org/2000/svg">
<path fill-rule="evenodd" clip-rule="evenodd" d="M35.9135 7.0199H37.4987C40.6628 7.0199 43.2279 9.58493 43.2279 12.7491V16.9157C43.2279 18.5911 42.0979 20.0025 40.5585 20.4293C40.8586 24.2347 40.6848 34.2923 40.0393 38.0591C39.6539 40.3084 37.8271 42.0315 35.5591 42.285L33.654 42.4979C27.9017 43.1408 22.0957 43.1408 16.3435 42.4979L14.4383 42.285C12.1703 42.0315 10.3435 40.3084 9.95811 38.0591C9.31263 34.2923 9.13878 24.2347 9.43892 20.4293C7.89953 20.0025 6.76953 18.5911 6.76953 16.9157V12.7491C6.76953 9.58493 9.33457 7.0199 12.4987 7.0199H14.0839H19.7904H30.207H35.9135ZM9.89453 12.7491C9.89453 11.3108 11.0605 10.1449 12.4987 10.1449H23.4362H26.5612H37.4987C38.9369 10.1449 40.1029 11.3108 40.1029 12.7491V16.9157C40.1029 17.2034 39.8697 17.4366 39.582 17.4366H26.5612H23.4362H10.4154C10.1277 17.4366 9.89453 17.2034 9.89453 16.9157V12.7491ZM26.5612 20.5616H37.4341C37.7263 24.1461 37.5673 33.9826 36.9592 37.5313C36.8089 38.4085 36.0965 39.0805 35.212 39.1793L33.3069 39.3923C31.0645 39.6429 28.8136 39.7917 26.5612 39.8388V20.5616ZM23.4362 20.5616V39.8388C21.1837 39.7917 18.9329 39.6429 16.6906 39.3923L14.7854 39.1793C13.9009 39.0805 13.1885 38.4085 13.0382 37.5313C12.4301 33.9826 12.2711 24.1461 12.5634 20.5616H23.4362Z" fill="#10BB87"/>
</svg>
