<svg width="50" height="50" viewBox="0 0 50 50" fill="none" xmlns="http://www.w3.org/2000/svg">
<path fill-rule="evenodd" clip-rule="evenodd" d="M31.3136 21.8118C31.9238 22.422 31.9238 23.4113 31.3136 24.0215L24.0219 31.3132C23.4117 31.9234 22.4224 31.9234 21.8122 31.3132L17.6455 27.1465C17.0353 26.5363 17.0353 25.547 17.6455 24.9368C18.2557 24.3266 19.245 24.3266 19.8552 24.9368L22.917 27.9986L29.1039 21.8118C29.7141 21.2016 30.7034 21.2016 31.3136 21.8118Z" fill="#10BB87"/>
<path fill-rule="evenodd" clip-rule="evenodd" d="M26.9418 12.934C23.712 12.934 20.9182 14.8138 19.6006 17.5461C19.2464 18.2807 18.3867 18.6192 17.6266 18.3235C16.6042 17.9257 15.4908 17.7066 14.3225 17.7066C9.28815 17.7066 5.20703 21.7877 5.20703 26.822C5.20703 31.8564 9.28815 35.9375 14.3225 35.9375H38.5905C42.0164 35.9375 44.7937 33.1602 44.7937 29.7342C44.7937 26.3082 42.0164 23.5309 38.5905 23.5309C38.033 23.5309 37.495 23.6041 36.9845 23.7404C36.4841 23.8741 35.95 23.7511 35.5584 23.412C35.1669 23.0728 34.9688 22.5617 35.0297 22.0473C35.0672 21.7303 35.0865 21.4071 35.0865 21.0787C35.0865 16.5805 31.44 12.934 26.9418 12.934ZM17.4587 14.9875C19.4624 11.8744 22.9597 9.80896 26.9418 9.80896C32.9429 9.80896 37.8484 14.4995 38.1923 20.4143C38.3244 20.4088 38.4571 20.4059 38.5905 20.4059C43.7423 20.4059 47.9187 24.5824 47.9187 29.7342C47.9187 34.8861 43.7423 39.0625 38.5905 39.0625H14.3225C7.56226 39.0625 2.08203 33.5822 2.08203 26.822C2.08203 20.0619 7.56226 14.5816 14.3225 14.5816C15.4051 14.5816 16.4566 14.7225 17.4587 14.9875Z" fill="#10BB87"/>
</svg>
