<svg width="50" height="50" viewBox="0 0 50 50" fill="none" xmlns="http://www.w3.org/2000/svg">
<path d="M14.3 14.3383C17.0365 11.5924 20.818 9.89587 24.9987 9.89587C33.3405 9.89587 40.1029 16.6582 40.1029 25C40.1029 33.3418 33.3405 40.1042 24.9987 40.1042C16.6569 40.1042 9.89453 33.3418 9.89453 25C9.89453 24.1371 9.19498 23.4375 8.33203 23.4375C7.46909 23.4375 6.76953 24.1371 6.76953 25C6.76953 35.0677 14.931 43.2292 24.9987 43.2292C35.0664 43.2292 43.2279 35.0677 43.2279 25C43.2279 14.9323 35.0664 6.77087 24.9987 6.77087C19.9539 6.77087 15.3853 8.82217 12.0865 12.1324C12.0334 12.1856 11.9851 12.2416 11.9413 12.3001L9.32136 9.68014C9.03556 9.39433 8.61022 9.29966 8.23018 9.43726C7.85014 9.57485 7.58399 9.91987 7.5474 10.3224L6.81083 18.4247C6.78284 18.7325 6.89305 19.0369 7.11165 19.2555C7.33025 19.4741 7.63465 19.5843 7.94253 19.5564L16.0448 18.8198C16.4473 18.7832 16.7923 18.5171 16.9299 18.137C17.0675 17.757 16.9729 17.3316 16.6871 17.0458L14.1285 14.4873C14.1883 14.4424 14.2457 14.3928 14.3 14.3383Z" fill="#10BB87"/>
<path d="M26.5612 14.5834C26.5612 13.7204 25.8616 13.0209 24.9987 13.0209C24.1358 13.0209 23.4362 13.7204 23.4362 14.5834V25C23.4362 25.5388 23.7137 26.0395 24.1706 26.325L30.4206 30.2313C31.1523 30.6886 32.1163 30.4662 32.5737 29.7344C33.0311 29.0026 32.8086 28.0387 32.0768 27.5813L26.5612 24.134V14.5834Z" fill="#10BB87"/>
</svg>
