<svg width="50" height="50" viewBox="0 0 50 50" fill="none" xmlns="http://www.w3.org/2000/svg">
<path fill-rule="evenodd" clip-rule="evenodd" d="M28.3634 4.81241C28.9397 5.05778 29.3138 5.62364 29.3138 6.25004V20.8296H37.5013C38.0569 20.8296 38.5708 21.1247 38.8508 21.6046C39.1309 22.0845 39.135 22.677 38.8617 23.1608L37.8365 24.975C33.9488 31.8556 28.9907 38.0735 23.1483 43.3954L21.491 44.9051C21.0336 45.3218 20.3734 45.4293 19.8074 45.1793C19.2414 44.9293 18.8763 44.3688 18.8763 43.75V29.2941H10.418C9.55502 29.2941 8.85547 28.5945 8.85547 27.7316C8.85547 27.4521 8.92885 27.1897 9.05741 26.9627C12.7216 20.1889 17.4128 14.0233 22.9643 8.68534L26.6683 5.12374C27.1199 4.68957 27.787 4.56703 28.3634 4.81241ZM13.0942 26.1691H20.4388C21.3017 26.1691 22.0013 26.8686 22.0013 27.7316V40.197C27.0401 35.4354 31.359 29.9639 34.8209 23.9546H27.7513C26.8884 23.9546 26.1888 23.255 26.1888 22.3921V9.92007L25.1302 10.9379C20.4411 15.4467 16.3926 20.5717 13.0942 26.1691Z" fill="#10BB87"/>
</svg>
