<svg width="20" height="20" viewBox="0 0 20 20" fill="none" xmlns="http://www.w3.org/2000/svg">
<path fill-rule="evenodd" clip-rule="evenodd" d="M16.4596 10C16.4596 9.65482 16.1798 9.375 15.8346 9.375H4.16797C3.82279 9.375 3.54297 9.65482 3.54297 10C3.54297 10.3452 3.82279 10.625 4.16797 10.625H15.8346C16.1798 10.625 16.4596 10.3452 16.4596 10Z" fill="black"/>
<path fill-rule="evenodd" clip-rule="evenodd" d="M16.4596 5.83333C16.4596 5.48815 16.1798 5.20833 15.8346 5.20833H4.16797C3.82279 5.20833 3.54297 5.48815 3.54297 5.83333C3.54297 6.17851 3.82279 6.45833 4.16797 6.45833H15.8346C16.1798 6.45833 16.4596 6.17851 16.4596 5.83333Z" fill="black"/>
<path fill-rule="evenodd" clip-rule="evenodd" d="M16.4596 14.1667C16.4596 13.8215 16.1798 13.5417 15.8346 13.5417H4.16797C3.82279 13.5417 3.54297 13.8215 3.54297 14.1667C3.54297 14.5118 3.82279 14.7917 4.16797 14.7917H15.8346C16.1798 14.7917 16.4596 14.5118 16.4596 14.1667Z" fill="black"/>
</svg>
