<svg width="20" height="20" viewBox="0 0 20 20" fill="none" xmlns="http://www.w3.org/2000/svg">
<path fill-rule="evenodd" clip-rule="evenodd" d="M11.9878 12.8714C9.77927 14.6403 6.54641 14.5011 4.49909 12.4538C2.30239 10.2571 2.30239 6.69552 4.49909 4.49882C6.69579 2.30212 10.2573 2.30212 12.454 4.49882C14.5014 6.54614 14.6406 9.779 12.8717 11.9876L17.1681 16.2839C17.4121 16.528 17.4121 16.9237 17.1681 17.1678C16.924 17.4119 16.5283 17.4119 16.2842 17.1678L11.9878 12.8714ZM5.38297 11.5699C3.67443 9.86135 3.67443 7.09125 5.38297 5.38271C7.09151 3.67416 9.86161 3.67416 11.5702 5.38271C13.2774 7.09 13.2787 9.85728 11.5739 11.5661C11.5727 11.5674 11.5714 11.5686 11.5701 11.5699C11.5689 11.5711 11.5676 11.5724 11.5664 11.5736C9.85755 13.2784 7.09026 13.2772 5.38297 11.5699Z" fill="black"/>
</svg>
