<svg width="150" height="397" viewBox="0 0 150 397" fill="none" xmlns="http://www.w3.org/2000/svg">
<g filter="url(#filter0_d_23_783)">
<rect x="40" y="30" width="70" height="317" rx="7" fill="white" shape-rendering="crispEdges"/>
<g filter="url(#filter1_d_23_783)">
<path d="M40 37C40 33.134 43.134 30 47 30H103C106.866 30 110 33.134 110 37V54H40V37Z" fill="url(#paint0_linear_23_783)"/>
</g>
<circle cx="52" cy="42" r="4" fill="#FF2F54"/>
<circle cx="65" cy="42" r="4" fill="#FFA630"/>
<path fill-rule="evenodd" clip-rule="evenodd" d="M68.2552 72.7239C68.156 71.5325 69.4909 70.8737 70.4072 71.4859L70.7036 71.6839C75.2232 74.7031 79.4531 78.1105 83.3418 81.8647C84.3106 82.7999 83.4563 84.2759 82.2475 84.1464L76.9811 83.5824C76.445 83.525 75.9508 83.8132 75.7474 84.2623L73.6187 88.9593C73.1046 90.0937 71.4112 89.9882 71.0743 88.7643C69.6595 83.6252 68.7257 78.373 68.2842 73.0714L68.2552 72.7239ZM69.7722 72.8656L69.779 72.9469C70.2018 78.0233 71.084 83.0539 72.4154 87.9807L74.3811 83.6431C74.8615 82.583 75.985 81.9672 77.1409 82.091L81.9479 82.6058C78.221 79.0473 74.1799 75.8101 69.8704 72.9312L69.7722 72.8656Z" fill="#B3B3B3"/>
<rect x="63" y="108" width="24" height="24" rx="7" fill="#FFA630"/>
<path d="M73.3144 116.354C73.5097 116.549 73.8263 116.549 74.0215 116.354L74.5013 115.874V119.5H70.8751L71.3549 119.02C71.5501 118.825 71.5501 118.508 71.3549 118.313C71.1596 118.118 70.843 118.118 70.6477 118.313L69.3144 119.647C69.1192 119.842 69.1192 120.158 69.3144 120.354L70.6477 121.687C70.843 121.882 71.1596 121.882 71.3549 121.687C71.5501 121.492 71.5501 121.175 71.3549 120.98L70.8751 120.5H74.5013V124.126L74.0215 123.647C73.8263 123.451 73.5097 123.451 73.3144 123.647C73.1192 123.842 73.1192 124.158 73.3144 124.354L74.6477 125.687C74.843 125.882 75.1596 125.882 75.3549 125.687L76.6882 124.354C76.8835 124.158 76.8835 123.842 76.6882 123.647C76.4929 123.451 76.1763 123.451 75.9811 123.647L75.5013 124.126V120.5H79.1275L78.6477 120.98C78.4525 121.175 78.4525 121.492 78.6477 121.687C78.843 121.882 79.1596 121.882 79.3549 121.687L80.6882 120.354C80.8835 120.158 80.8835 119.842 80.6882 119.647L79.3549 118.313C79.1596 118.118 78.843 118.118 78.6477 118.313C78.4525 118.508 78.4525 118.825 78.6477 119.02L79.1275 119.5H75.5013V115.874L75.9811 116.354C76.1763 116.549 76.4929 116.549 76.6882 116.354C76.8835 116.158 76.8835 115.842 76.6882 115.647L75.3549 114.313C75.1596 114.118 74.843 114.118 74.6477 114.313L73.3144 115.647C73.1192 115.842 73.1192 116.158 73.3144 116.354Z" fill="white"/>
<path d="M77.0003 156C77.0003 155.171 77.6719 154.5 78.5003 154.5C79.3287 154.5 80.0003 155.171 80.0003 156C80.0003 156.828 79.3287 157.5 78.5003 157.5C77.6719 157.5 77.0003 156.828 77.0003 156Z" fill="#B3B3B3"/>
<path fill-rule="evenodd" clip-rule="evenodd" d="M70.2678 151.658C73.4169 151.385 76.5837 151.385 79.7328 151.658L81.243 151.79C82.6881 151.915 83.8588 153.015 84.0745 154.449C84.5281 157.466 84.5281 160.534 84.0745 163.55C83.8588 164.985 82.6881 166.084 81.243 166.21L79.7328 166.341C76.5837 166.615 73.4169 166.615 70.2678 166.341L68.7576 166.21C67.3125 166.084 66.1419 164.985 65.9262 163.55C65.4725 160.534 65.4725 157.466 65.9262 154.449C66.1419 153.015 67.3125 151.915 68.7576 151.79L70.2678 151.658ZM79.6029 153.153C76.5403 152.887 73.4603 152.887 70.3977 153.153L68.8875 153.284C68.1332 153.35 67.5221 153.924 67.4095 154.672C67.152 156.385 67.0482 158.115 67.0981 159.841L70.97 155.97C71.116 155.823 71.3159 155.744 71.5223 155.75C71.7288 155.756 71.9236 155.847 72.0609 156.002L75.7323 160.132L78.2631 159.288C78.5462 159.194 78.8582 159.276 79.0578 159.498L82.5769 163.408C82.5823 163.382 82.587 163.355 82.5911 163.327C83.0225 160.458 83.0225 157.541 82.5911 154.672C82.4785 153.924 81.8674 153.35 81.1131 153.284L79.6029 153.153ZM81.6205 164.588L78.2714 160.867L75.7375 161.711C75.4528 161.806 75.1391 161.722 74.9397 161.498L71.4682 157.593L67.2245 161.836C67.2733 162.334 67.3349 162.832 67.4095 163.327C67.5221 164.076 68.1332 164.65 68.8875 164.716L70.3977 164.847C73.4603 165.113 76.5403 165.113 79.6029 164.847L81.1131 164.716C81.2919 164.7 81.4625 164.656 81.6205 164.588Z" fill="#B3B3B3"/>
<path fill-rule="evenodd" clip-rule="evenodd" d="M76.153 189.36C75.4819 189.01 74.5725 189.005 73.896 189.354C71.3031 190.693 68.9512 192.229 66.8902 193.932C66.5715 194.195 66.3453 194.578 66.3492 195.028C66.353 195.477 66.5838 195.854 66.9006 196.113C68.9445 197.784 71.2983 199.321 73.8438 200.65C74.5149 201 75.4243 201.005 76.1007 200.656C78.6937 199.317 81.0456 197.781 83.1065 196.078C83.4253 195.815 83.6514 195.432 83.6476 194.982C83.6437 194.533 83.4129 194.156 83.0962 193.897C81.0523 192.226 78.6985 190.689 76.153 189.36ZM74.5843 190.687C74.824 190.563 75.2177 190.564 75.459 190.69C77.8883 191.958 80.1267 193.417 82.066 194.992C80.1152 196.593 77.8834 198.047 75.4124 199.323C75.1728 199.447 74.7791 199.446 74.5378 199.32C72.1084 198.052 69.87 196.593 67.9308 195.018C69.8816 193.417 72.1134 191.963 74.5843 190.687Z" fill="#B3B3B3"/>
<path d="M84.1954 198.698C84.4148 199.049 84.3078 199.512 83.9564 199.731L77.8492 203.544C77.0204 204.062 75.9922 204.301 74.9983 204.301C74.0044 204.301 72.9761 204.062 72.1473 203.545L66.1069 199.775C65.7555 199.556 65.6484 199.093 65.8678 198.742C66.0871 198.39 66.5497 198.283 66.9011 198.502L72.9414 202.272C73.4856 202.612 74.2248 202.801 74.9982 202.801C75.7717 202.801 76.5108 202.612 77.0548 202.272L83.162 198.459C83.5134 198.24 83.9761 198.347 84.1954 198.698Z" fill="#B3B3B3"/>
<path d="M84.1954 202.453C84.4148 202.804 84.3078 203.267 83.9565 203.486L78.6676 206.789C77.61 207.449 76.287 207.76 74.9983 207.76C73.7095 207.76 72.3865 207.45 71.3287 206.789L66.1068 203.53C65.7555 203.31 65.6485 202.848 65.8678 202.496C66.0871 202.145 66.5498 202.038 66.9012 202.257L72.123 205.517C72.896 206 73.93 206.26 74.9982 206.26C76.0664 206.26 77.1002 205.999 77.8731 205.517L83.162 202.214C83.5133 201.994 83.976 202.101 84.1954 202.453Z" fill="#B3B3B3"/>
<path fill-rule="evenodd" clip-rule="evenodd" d="M82.4227 231.4C78.4243 231.029 74.3972 231.029 70.3988 231.4C70.3237 231.407 70.2953 231.452 70.2914 231.463C69.9029 232.601 69.9029 233.842 70.2914 234.979C70.2953 234.99 70.3237 235.035 70.3988 235.042C74.3972 235.414 78.4243 235.414 82.4227 235.042C82.4978 235.035 82.5262 234.99 82.5301 234.979C82.9186 233.842 82.9186 232.601 82.5301 231.463C82.5262 231.452 82.4978 231.407 82.4227 231.4ZM82.5152 230.405C78.4552 230.028 74.3662 230.028 70.3063 230.405C69.8587 230.446 69.4826 230.738 69.3451 231.14C68.885 232.487 68.885 233.956 69.3451 235.303C69.4826 235.705 69.8587 235.996 70.3063 236.038C74.3662 236.415 78.4552 236.415 82.5152 236.038C82.9628 235.996 83.3389 235.705 83.4764 235.303C83.9365 233.956 83.9365 232.487 83.4764 231.14C83.3389 230.738 82.9628 230.446 82.5152 230.405Z" fill="#B3B3B3"/>
<path fill-rule="evenodd" clip-rule="evenodd" d="M82.4975 230.604C78.4498 230.228 74.3732 230.228 70.3255 230.604C69.9525 230.639 69.6459 230.881 69.5352 231.205C69.0893 232.51 69.0893 233.933 69.5352 235.238C69.6459 235.562 69.9525 235.804 70.3255 235.839C74.3732 236.215 78.4498 236.215 82.4975 235.839C82.8705 235.804 83.1771 235.562 83.2879 235.238C83.7337 233.933 83.7337 232.51 83.2879 231.205C83.1771 230.881 82.8705 230.639 82.4975 230.604ZM70.2885 230.206C74.3608 229.827 78.4622 229.827 82.5345 230.206C83.0565 230.254 83.5022 230.595 83.6664 231.075C84.1409 232.464 84.1409 233.978 83.6664 235.367C83.5022 235.848 83.0565 236.189 82.5345 236.237C78.4622 236.615 74.3608 236.615 70.2885 236.237C69.7665 236.189 69.3208 235.848 69.1566 235.367C68.6822 233.978 68.6822 232.464 69.1566 231.075C69.3208 230.595 69.7665 230.254 70.2885 230.206ZM70.4588 231.596C70.1148 232.65 70.1148 233.793 70.4588 234.847C74.4179 235.212 78.4051 235.212 82.3642 234.847C82.7083 233.793 82.7083 232.65 82.3642 231.596C78.4051 231.231 74.4179 231.231 70.4588 231.596ZM70.3811 231.201C74.3918 230.829 78.4312 230.829 82.442 231.201C82.5964 231.216 82.6911 231.314 82.7201 231.399C83.123 232.578 83.123 233.865 82.7201 235.044L82.5308 234.979L82.7201 235.044C82.6911 235.129 82.5964 235.227 82.442 235.241C78.4312 235.614 74.3918 235.614 70.3811 235.241C70.2266 235.227 70.1319 235.129 70.1029 235.044C69.7001 233.865 69.7001 232.578 70.1029 231.399C70.132 231.314 70.2266 231.216 70.3811 231.201Z" fill="#B3B3B3"/>
<path fill-rule="evenodd" clip-rule="evenodd" d="M70.179 238.913C69.9403 240.12 69.9403 241.442 70.179 242.65C72.2762 242.958 74.3854 242.958 76.4826 242.65C76.7212 241.442 76.7212 240.12 76.4826 238.913C74.3854 238.605 72.2762 238.605 70.179 238.913ZM76.8982 237.965C74.5256 237.587 72.136 237.587 69.7634 237.965C69.5018 238.006 69.282 238.298 69.2017 238.7C68.9328 240.047 68.9328 241.515 69.2017 242.862C69.282 243.265 69.5018 243.556 69.7634 243.598C72.136 243.975 74.5256 243.975 76.8982 243.598C77.1598 243.556 77.3796 243.265 77.4599 242.862C77.7288 241.515 77.7288 240.047 77.4599 238.7C77.3796 238.298 77.1598 238.006 76.8982 237.965Z" fill="#B3B3B3"/>
<path fill-rule="evenodd" clip-rule="evenodd" d="M76.8676 238.162C74.5158 237.788 72.1474 237.788 69.7956 238.162C69.7297 238.173 69.6509 238.218 69.5745 238.318C69.4986 238.418 69.434 238.562 69.3986 238.739C69.1348 240.06 69.1348 241.502 69.3986 242.823C69.434 243.001 69.4986 243.144 69.5745 243.244C69.6509 243.345 69.7297 243.39 69.7956 243.4C72.1474 243.774 74.5158 243.774 76.8676 243.4C76.9334 243.39 77.0123 243.345 77.0887 243.244C77.1646 243.144 77.2291 243.001 77.2646 242.823C77.5283 241.502 77.5283 240.06 77.2646 238.739C77.2291 238.562 77.1646 238.418 77.0887 238.318C77.0123 238.218 76.9334 238.173 76.8676 238.162ZM69.7327 237.767C72.1262 237.387 74.537 237.387 76.9304 237.767C77.1261 237.798 77.288 237.92 77.4069 238.076C77.5264 238.233 77.6119 238.436 77.6568 238.661C77.9309 240.034 77.9309 241.529 77.6568 242.902C77.6119 243.127 77.5264 243.33 77.4069 243.486C77.288 243.643 77.1261 243.764 76.9304 243.795C74.537 244.176 72.1262 244.176 69.7327 243.795C69.5371 243.764 69.3752 243.643 69.2562 243.486C69.1368 243.33 69.0512 243.127 69.0063 242.902C68.7323 241.529 68.7323 240.034 69.0063 238.661C69.0512 238.436 69.1368 238.233 69.2562 238.076C69.3752 237.92 69.5371 237.798 69.7327 237.767ZM70.3497 239.09C70.1512 240.188 70.1512 241.375 70.3497 242.472C72.3343 242.75 74.3289 242.75 76.3135 242.472C76.512 241.375 76.512 240.188 76.3135 239.09C74.3289 238.812 72.3343 238.812 70.3497 239.09ZM70.1507 238.715C72.2672 238.404 74.3959 238.404 76.5125 238.715L76.6522 238.735L76.6796 238.874C76.9233 240.107 76.9233 241.455 76.6796 242.688L76.6522 242.827L76.5125 242.848C74.3959 243.158 72.2672 243.158 70.1507 242.848L70.0109 242.827L69.9835 242.688C69.7399 241.455 69.7399 240.107 69.9835 238.874L70.0109 238.735L70.1507 238.715Z" fill="#B3B3B3"/>
<path d="M66.1484 228.498C66.1484 228.223 66.3714 228 66.6465 228C66.9215 228 67.1445 228.223 67.1445 228.498V245.502C67.1445 245.777 66.9215 246 66.6465 246C66.3714 246 66.1484 245.777 66.1484 245.502V228.498Z" fill="#B3B3B3"/>
<path fill-rule="evenodd" clip-rule="evenodd" d="M65.9492 228.498C65.9492 228.113 66.2617 227.8 66.6472 227.8C67.0327 227.8 67.3453 228.113 67.3453 228.498V245.502C67.3453 245.888 67.0327 246.2 66.6472 246.2C66.2617 246.2 65.9492 245.888 65.9492 245.502V228.498ZM66.6472 228.2C66.4826 228.2 66.3492 228.333 66.3492 228.498V245.502C66.3492 245.667 66.4826 245.8 66.6472 245.8C66.8118 245.8 66.9453 245.667 66.9453 245.502V228.498C66.9453 228.333 66.8118 228.2 66.6472 228.2Z" fill="#B3B3B3"/>
<path fill-rule="evenodd" clip-rule="evenodd" d="M81.4227 270.4C77.4243 270.029 73.3972 270.029 69.3988 270.4C69.3237 270.407 69.2953 270.452 69.2914 270.463C68.9029 271.601 68.9029 272.842 69.2914 273.979C69.2953 273.99 69.3237 274.035 69.3988 274.042C73.3972 274.414 77.4243 274.414 81.4227 274.042C81.4978 274.035 81.5262 273.99 81.5301 273.979C81.9186 272.842 81.9186 271.601 81.5301 270.463C81.5262 270.452 81.4978 270.407 81.4227 270.4ZM81.5152 269.405C77.4552 269.028 73.3662 269.028 69.3063 269.405C68.8587 269.446 68.4826 269.738 68.3451 270.14C67.885 271.487 67.885 272.956 68.3451 274.303C68.4826 274.705 68.8587 274.996 69.3063 275.038C73.3662 275.415 77.4552 275.415 81.5152 275.038C81.9628 274.996 82.3389 274.705 82.4764 274.303C82.9365 272.956 82.9365 271.487 82.4764 270.14C82.3389 269.738 81.9628 269.446 81.5152 269.405Z" fill="#B3B3B3"/>
<path fill-rule="evenodd" clip-rule="evenodd" d="M81.4975 269.604C77.4498 269.228 73.3732 269.228 69.3255 269.604C68.9525 269.639 68.6459 269.881 68.5352 270.205C68.0893 271.51 68.0893 272.933 68.5352 274.238C68.6459 274.562 68.9525 274.804 69.3255 274.839C73.3732 275.215 77.4498 275.215 81.4975 274.839C81.8705 274.804 82.1771 274.562 82.2879 274.238C82.7337 272.933 82.7337 271.51 82.2879 270.205C82.1771 269.881 81.8705 269.639 81.4975 269.604ZM69.2885 269.206C73.3608 268.827 77.4622 268.827 81.5345 269.206C82.0565 269.254 82.5022 269.595 82.6664 270.075C83.1409 271.464 83.1409 272.978 82.6664 274.367C82.5022 274.848 82.0565 275.189 81.5345 275.237C77.4622 275.615 73.3608 275.615 69.2885 275.237C68.7665 275.189 68.3208 274.848 68.1566 274.367C67.6822 272.978 67.6822 271.464 68.1566 270.075C68.3208 269.595 68.7665 269.254 69.2885 269.206ZM69.4588 270.596C69.1148 271.65 69.1148 272.793 69.4588 273.847C73.4179 274.212 77.4051 274.212 81.3642 273.847C81.7083 272.793 81.7083 271.65 81.3642 270.596C77.4051 270.231 73.4179 270.231 69.4588 270.596ZM69.3811 270.201C73.3918 269.829 77.4312 269.829 81.442 270.201C81.5964 270.216 81.6911 270.314 81.7201 270.399C82.123 271.578 82.123 272.865 81.7201 274.044L81.5308 273.979L81.7201 274.044C81.6911 274.129 81.5964 274.227 81.442 274.241C77.4312 274.614 73.3918 274.614 69.3811 274.241C69.2266 274.227 69.1319 274.129 69.1029 274.044C68.7001 272.865 68.7001 271.578 69.1029 270.399C69.132 270.314 69.2266 270.216 69.3811 270.201Z" fill="#B3B3B3"/>
<path fill-rule="evenodd" clip-rule="evenodd" d="M72.179 277.913C71.9403 279.12 71.9403 280.442 72.179 281.65C74.2762 281.958 76.3854 281.958 78.4826 281.65C78.7212 280.442 78.7212 279.12 78.4826 277.913C76.3854 277.605 74.2762 277.605 72.179 277.913ZM78.8982 276.965C76.5256 276.587 74.136 276.587 71.7634 276.965C71.5018 277.006 71.282 277.298 71.2017 277.7C70.9328 279.047 70.9328 280.515 71.2017 281.862C71.282 282.265 71.5018 282.556 71.7634 282.598C74.136 282.975 76.5256 282.975 78.8982 282.598C79.1598 282.556 79.3796 282.265 79.4599 281.862C79.7288 280.515 79.7288 279.047 79.4599 277.7C79.3796 277.298 79.1598 277.006 78.8982 276.965Z" fill="#B3B3B3"/>
<path fill-rule="evenodd" clip-rule="evenodd" d="M78.8676 277.162C76.5158 276.788 74.1474 276.788 71.7956 277.162C71.7297 277.173 71.6509 277.218 71.5745 277.318C71.4986 277.418 71.434 277.562 71.3986 277.739C71.1348 279.06 71.1348 280.502 71.3986 281.823C71.434 282.001 71.4986 282.144 71.5745 282.244C71.6509 282.345 71.7297 282.39 71.7956 282.4C74.1474 282.774 76.5158 282.774 78.8676 282.4C78.9334 282.39 79.0123 282.345 79.0887 282.244C79.1646 282.144 79.2291 282.001 79.2646 281.823C79.5283 280.502 79.5283 279.06 79.2646 277.739C79.2291 277.562 79.1646 277.418 79.0887 277.318C79.0123 277.218 78.9334 277.173 78.8676 277.162ZM71.7327 276.767C74.1262 276.387 76.537 276.387 78.9304 276.767C79.1261 276.798 79.288 276.92 79.4069 277.076C79.5264 277.233 79.6119 277.436 79.6568 277.661C79.9309 279.034 79.9309 280.529 79.6568 281.902C79.6119 282.127 79.5264 282.33 79.4069 282.486C79.288 282.643 79.1261 282.764 78.9304 282.795C76.537 283.176 74.1262 283.176 71.7327 282.795C71.5371 282.764 71.3752 282.643 71.2562 282.486C71.1368 282.33 71.0512 282.127 71.0063 281.902C70.7323 280.529 70.7323 279.034 71.0063 277.661C71.0512 277.436 71.1368 277.233 71.2562 277.076C71.3752 276.92 71.5371 276.798 71.7327 276.767ZM72.3497 278.09C72.1512 279.188 72.1512 280.375 72.3497 281.472C74.3343 281.75 76.3289 281.75 78.3135 281.472C78.512 280.375 78.512 279.188 78.3135 278.09C76.3289 277.812 74.3343 277.812 72.3497 278.09ZM72.1507 277.715C74.2672 277.404 76.3959 277.404 78.5125 277.715L78.6522 277.735L78.6796 277.874C78.9233 279.107 78.9233 280.455 78.6796 281.688L78.6522 281.827L78.5125 281.848C76.3959 282.158 74.2672 282.158 72.1507 281.848L72.0109 281.827L71.9835 281.688C71.7399 280.455 71.7399 279.107 71.9835 277.874L72.0109 277.735L72.1507 277.715Z" fill="#B3B3B3"/>
<path d="M75 267.498C75 267.223 75.223 267 75.498 267C75.7731 267 75.996 267.223 75.996 267.498V284.502C75.996 284.777 75.7731 285 75.498 285C75.223 285 75 284.777 75 284.502V267.498Z" fill="#B3B3B3"/>
<path fill-rule="evenodd" clip-rule="evenodd" d="M74.8008 267.498C74.8008 267.113 75.1133 266.8 75.4988 266.8C75.8843 266.8 76.1968 267.113 76.1968 267.498V284.502C76.1968 284.888 75.8843 285.2 75.4988 285.2C75.1133 285.2 74.8008 284.888 74.8008 284.502V267.498ZM75.4988 267.2C75.3342 267.2 75.2008 267.333 75.2008 267.498V284.502C75.2008 284.667 75.3342 284.8 75.4988 284.8C75.6634 284.8 75.7968 284.667 75.7968 284.502V267.498C75.7968 267.333 75.6634 267.2 75.4988 267.2Z" fill="#B3B3B3"/>
<path fill-rule="evenodd" clip-rule="evenodd" d="M79.4227 309.4C75.4243 309.029 71.3972 309.029 67.3988 309.4C67.3237 309.407 67.2953 309.452 67.2914 309.463C66.9029 310.601 66.9029 311.842 67.2914 312.979C67.2953 312.99 67.3237 313.035 67.3988 313.042C71.3972 313.414 75.4243 313.414 79.4227 313.042C79.4978 313.035 79.5262 312.99 79.5301 312.979C79.9186 311.842 79.9186 310.601 79.5301 309.463C79.5262 309.452 79.4978 309.407 79.4227 309.4ZM79.5152 308.405C75.4552 308.028 71.3662 308.028 67.3063 308.405C66.8587 308.446 66.4826 308.738 66.3451 309.14C65.885 310.487 65.885 311.956 66.3451 313.303C66.4826 313.705 66.8587 313.996 67.3063 314.038C71.3662 314.415 75.4552 314.415 79.5152 314.038C79.9628 313.996 80.3389 313.705 80.4764 313.303C80.9365 311.956 80.9365 310.487 80.4764 309.14C80.3389 308.738 79.9628 308.446 79.5152 308.405Z" fill="#B3B3B3"/>
<path fill-rule="evenodd" clip-rule="evenodd" d="M79.4975 308.604C75.4498 308.228 71.3732 308.228 67.3255 308.604C66.9525 308.639 66.6459 308.881 66.5352 309.205C66.0893 310.51 66.0893 311.933 66.5352 313.238C66.6459 313.562 66.9525 313.804 67.3255 313.839C71.3732 314.215 75.4498 314.215 79.4975 313.839C79.8705 313.804 80.1771 313.562 80.2879 313.238C80.7337 311.933 80.7337 310.51 80.2879 309.205C80.1771 308.881 79.8705 308.639 79.4975 308.604ZM67.2885 308.206C71.3608 307.827 75.4622 307.827 79.5345 308.206C80.0565 308.254 80.5022 308.595 80.6664 309.075C81.1409 310.464 81.1409 311.978 80.6664 313.367C80.5022 313.848 80.0565 314.189 79.5345 314.237C75.4622 314.615 71.3608 314.615 67.2885 314.237C66.7665 314.189 66.3208 313.848 66.1566 313.367C65.6822 311.978 65.6822 310.464 66.1566 309.075C66.3208 308.595 66.7665 308.254 67.2885 308.206ZM67.4588 309.596C67.1148 310.65 67.1148 311.793 67.4588 312.847C71.4179 313.212 75.4051 313.212 79.3642 312.847C79.7083 311.793 79.7083 310.65 79.3642 309.596C75.4051 309.231 71.4179 309.231 67.4588 309.596ZM67.3811 309.201C71.3918 308.829 75.4312 308.829 79.442 309.201C79.5964 309.216 79.6911 309.314 79.7201 309.399C80.123 310.578 80.123 311.865 79.7201 313.044L79.5308 312.979L79.7201 313.044C79.6911 313.129 79.5964 313.227 79.442 313.241C75.4312 313.614 71.3918 313.614 67.3811 313.241C67.2266 313.227 67.1319 313.129 67.1029 313.044C66.7001 311.865 66.7001 310.578 67.1029 309.399C67.132 309.314 67.2266 309.216 67.3811 309.201Z" fill="#B3B3B3"/>
<path fill-rule="evenodd" clip-rule="evenodd" d="M73.179 316.913C72.9403 318.12 72.9403 319.442 73.179 320.65C75.2762 320.958 77.3854 320.958 79.4826 320.65C79.7212 319.442 79.7212 318.12 79.4826 316.913C77.3854 316.605 75.2762 316.605 73.179 316.913ZM79.8982 315.965C77.5256 315.587 75.136 315.587 72.7634 315.965C72.5018 316.006 72.282 316.298 72.2017 316.7C71.9328 318.047 71.9328 319.515 72.2017 320.862C72.282 321.265 72.5018 321.556 72.7634 321.598C75.136 321.975 77.5256 321.975 79.8982 321.598C80.1598 321.556 80.3796 321.265 80.4599 320.862C80.7288 319.515 80.7288 318.047 80.4599 316.7C80.3796 316.298 80.1598 316.006 79.8982 315.965Z" fill="#B3B3B3"/>
<path fill-rule="evenodd" clip-rule="evenodd" d="M79.8676 316.162C77.5158 315.788 75.1474 315.788 72.7956 316.162C72.7297 316.172 72.6509 316.218 72.5745 316.318C72.4986 316.418 72.434 316.561 72.3986 316.739C72.1348 318.06 72.1348 319.502 72.3986 320.823C72.434 321 72.4986 321.144 72.5745 321.244C72.6509 321.344 72.7297 321.389 72.7956 321.4C75.1474 321.774 77.5158 321.774 79.8676 321.4C79.9334 321.389 80.0123 321.344 80.0887 321.244C80.1646 321.144 80.2291 321 80.2646 320.823C80.5283 319.502 80.5283 318.06 80.2646 316.739C80.2291 316.561 80.1646 316.418 80.0887 316.318C80.0123 316.218 79.9334 316.172 79.8676 316.162ZM72.7327 315.767C75.1262 315.386 77.537 315.386 79.9304 315.767C80.1261 315.798 80.288 315.919 80.4069 316.076C80.5264 316.233 80.6119 316.436 80.6568 316.661C80.9309 318.033 80.9309 319.529 80.6568 320.901C80.6119 321.126 80.5264 321.329 80.4069 321.486C80.288 321.643 80.1261 321.764 79.9304 321.795C77.537 322.176 75.1262 322.176 72.7327 321.795C72.5371 321.764 72.3752 321.643 72.2562 321.486C72.1368 321.329 72.0512 321.126 72.0063 320.901C71.7323 319.529 71.7323 318.033 72.0063 316.661C72.0512 316.436 72.1368 316.233 72.2562 316.076C72.3752 315.919 72.5371 315.798 72.7327 315.767ZM73.3497 317.09C73.1512 318.188 73.1512 319.374 73.3497 320.472C75.3343 320.75 77.3289 320.75 79.3135 320.472C79.512 319.374 79.512 318.188 79.3135 317.09C77.3289 316.812 75.3343 316.812 73.3497 317.09ZM73.1507 316.715C75.2672 316.404 77.3959 316.404 79.5125 316.715L79.6522 316.735L79.6796 316.874C79.9233 318.107 79.9233 319.455 79.6796 320.688L79.6522 320.827L79.5125 320.847C77.3959 321.158 75.2672 321.158 73.1507 320.847L73.0109 320.827L72.9835 320.688C72.7399 319.455 72.7399 318.107 72.9835 316.874L73.0109 316.735L73.1507 316.715Z" fill="#B3B3B3"/>
<path d="M83.0039 306.498C83.0039 306.223 83.2269 306 83.5019 306C83.777 306 83.9999 306.223 83.9999 306.498V323.502C83.9999 323.777 83.777 324 83.5019 324C83.2269 324 83.0039 323.777 83.0039 323.502V306.498Z" fill="#B3B3B3"/>
<path fill-rule="evenodd" clip-rule="evenodd" d="M82.8047 306.498C82.8047 306.113 83.1172 305.8 83.5027 305.8C83.8882 305.8 84.2007 306.113 84.2007 306.498V323.502C84.2007 323.888 83.8882 324.2 83.5027 324.2C83.1172 324.2 82.8047 323.888 82.8047 323.502V306.498ZM83.5027 306.2C83.3381 306.2 83.2047 306.333 83.2047 306.498V323.502C83.2047 323.667 83.3381 323.8 83.5027 323.8C83.6673 323.8 83.8007 323.667 83.8007 323.502V306.498C83.8007 306.333 83.6673 306.2 83.5027 306.2Z" fill="#B3B3B3"/>
</g>
<defs>
<filter id="filter0_d_23_783" x="0" y="0" width="150" height="397" filterUnits="userSpaceOnUse" color-interpolation-filters="sRGB">
<feFlood flood-opacity="0" result="BackgroundImageFix"/>
<feColorMatrix in="SourceAlpha" type="matrix" values="0 0 0 0 0 0 0 0 0 0 0 0 0 0 0 0 0 0 127 0" result="hardAlpha"/>
<feOffset dy="10"/>
<feGaussianBlur stdDeviation="20"/>
<feComposite in2="hardAlpha" operator="out"/>
<feColorMatrix type="matrix" values="0 0 0 0 0 0 0 0 0 0 0 0 0 0 0 0 0 0 0.15 0"/>
<feBlend mode="normal" in2="BackgroundImageFix" result="effect1_dropShadow_23_783"/>
<feBlend mode="normal" in="SourceGraphic" in2="effect1_dropShadow_23_783" result="shape"/>
</filter>
<filter id="filter1_d_23_783" x="35" y="27" width="80" height="34" filterUnits="userSpaceOnUse" color-interpolation-filters="sRGB">
<feFlood flood-opacity="0" result="BackgroundImageFix"/>
<feColorMatrix in="SourceAlpha" type="matrix" values="0 0 0 0 0 0 0 0 0 0 0 0 0 0 0 0 0 0 127 0" result="hardAlpha"/>
<feOffset dy="2"/>
<feGaussianBlur stdDeviation="2.5"/>
<feComposite in2="hardAlpha" operator="out"/>
<feColorMatrix type="matrix" values="0 0 0 0 0 0 0 0 0 0 0 0 0 0 0 0 0 0 0.15 0"/>
<feBlend mode="normal" in2="BackgroundImageFix" result="effect1_dropShadow_23_783"/>
<feBlend mode="normal" in="SourceGraphic" in2="effect1_dropShadow_23_783" result="shape"/>
</filter>
<linearGradient id="paint0_linear_23_783" x1="75" y1="30" x2="75" y2="54" gradientUnits="userSpaceOnUse">
<stop stop-color="#4D4D4D"/>
<stop offset="1" stop-color="#262626"/>
</linearGradient>
</defs>
</svg>
